PathFileType	4	(X/Y/Z)	S01_0004_Gait_markers.trc
DataRate	CameraRate	NumFrames	NumMarkers	Units	OrigDataRate	OrigDataStartFrame	OrigNumFrames
250.000000	250.000000	4	54	mm	250.000000	200	320
Frame#	Time	HEAD_ANT			R_HEAD			L_HEAD			C7			R_BACK			L_BACK			STERNUM			R_ACROMION			R_HUM_PROX			R_HUM_ANT			R_HUM_POST			R_ELBOW_LAT			R_ELBOW_MED			R_FOREARM			R_WIRST_LAT			R_WRITS_MED			R_HAND			L_ACROMION			L_HUM_PROX			L_HUM_ANT			L_HUM_POST			L_ELBOW_LAT			L_ELBOW_MED			L_FOREARM			L_WRIST_LAT			L_WIRST_MED			L_HAND			R_ILIAC			SACRUM			L_ILIAC			R_GTROCH			R_THIGH__1			R_THIGH_2			R_THIGH_3			R_THIGH_4			R_SHANK_1			R_SHANK_2			R_SHANK_3			R_SHANK_4			R_HEEL			R_FOOT_LAT			R_FOOT_MED			L_GTROCH			L_THIGH_1			L_THIGH_2			L_THIGH_3			L_THIGH_4			L_SHANK_1			L_SHANK_2			L_SHANK_3			L_SHANK_4			L_HEEL			L_FOOT_LAT			L_FOOT_MED			
		X1	Y1	Z1	X2	Y2	Z2	X3	Y3	Z3	X4	Y4	Z4	X5	Y5	Z5	X6	Y6	Z6	X7	Y7	Z7	X8	Y8	Z8	X9	Y9	Z9	X10	Y10	Z10	X11	Y11	Z11	X12	Y12	Z12	X13	Y13	Z13	X14	Y14	Z14	X15	Y15	Z15	X16	Y16	Z16	X17	Y17	Z17	X18	Y18	Z18	X19	Y19	Z19	X20	Y20	Z20	X21	Y21	Z21	X22	Y22	Z22	X23	Y23	Z23	X24	Y24	Z24	X25	Y25	Z25	X26	Y26	Z26	X27	Y27	Z27	X28	Y28	Z28	X29	Y29	Z29	X30	Y30	Z30	X31	Y31	Z31	X32	Y32	Z32	X33	Y33	Z33	X34	Y34	Z34	X35	Y35	Z35	X36	Y36	Z36	X37	Y37	Z37	X38	Y38	Z38	X39	Y39	Z39	X40	Y40	Z40	X41	Y41	Z41	X42	Y42	Z42	X43	Y43	Z43	X44	Y44	Z44	X45	Y45	Z45	X46	Y46	Z46	X47	Y47	Z47	X48	Y48	Z48	X49	Y49	Z49	X50	Y50	Z50	X51	Y51	Z51	X52	Y52	Z52	X53	Y53	Z53	X54	Y54	Z54	

201	0.8	1281.867065429688	1746.932983398438	-392.0814208984371	1222.560791015625	1703.483276367188	-311.0270996093746	1225.849609375	1691.502197265625	-458.1291198730465	1088.853759765625	1527.365844726562	-372.9355468749997	1014.180419921875	1334.484008789062	-298.7570495605466	1013.099487304688	1332.630615234375	-435.824035644531	1268.390014648438	1363.27783203125	-376.5275573730466	1174.553833007812	1479.048583984375	-202.5449066162106	1149.750122070312	1319.27001953125	-109.9953155517575	1210.92919921875	1233.539794921875	-121.4731140136716	1093.3125	1235.808471679688	-87.66739654540989	1137.986206054688	1128.58154296875	-93.74867248535131	1101.197631835938	1126.748779296875	-167.9211273193357	1237.196166992188	944.8922729492188	-114.4776458740232	1263.233154296875	877.675537109375	-163.6278839111326	1208.09423828125	856.5106201171875	-106.0730667114256	1278.128051757812	788.8707275390625	-112.1661224365233	1165.329345703125	1477.693969726563	-541.4768676757809	1135.603393554688	1307.816162109375	-629.8450927734372	1195.021362304688	1225.491333007813	-629.2304077148435	1073.251708984375	1231.38134765625	-649.124572753906	1130.646240234375	1123.562622070313	-652.7580566406248	1078.092529296875	1125.615844726563	-598.127746582031	1223.948608398438	944.2061157226564	-635.8832397460935	1250.88232421875	880.1671752929689	-583.4642333984373	1204.061157226562	864.2365722656251	-645.2832031249998	1276.658813476562	804.1039428710939	-639.6513671874998	1155.495849609375	1076.2197265625	-193.9855194091795	1033.591430664062	1050.356811523438	-368.1252441406248	1158.16015625	1074.943115234375	-539.0700073242185	1107.05712890625	925.3419189453125	-182.5697021484373	1156.316528320312	647.0888061523438	-193.9776153564452	1212.52294921875	664.2843627929688	-186.2703247070311	1220.2822265625	559.806396484375	-210.5868377685546	1154.852294921875	564.8843383789062	-208.2971649169921	1035.008911132812	417.1776123046876	-201.3433990478515	1057.84228515625	362.3479003906251	-211.0849609374999	994.1233520507812	306.5543518066407	-227.2111663818359	955.0630493164062	356.8741149902344	-220.898223876953	781.1529541015625	246.8956604003907	-302.5339050292968	852.6853637695312	101.8447036743164	-218.53515625	901.6879272460938	73.7824783325196	-304.81640625	1133.21533203125	963.5689697265626	-545.3780517578123	1264.402954101562	683.5500488281251	-522.1165161132811	1210.229370117188	694.3165283203126	-543.7463989257811	1207.39697265625	592.1995239257814	-508.4809570312499	1269.308227539062	605.2415771484376	-495.4560546874999	1239.8330078125	328.472625732422	-488.3666076660156	1182.216064453125	309.7248535156251	-493.4497680664062	1173.582397460938	224.8120269775392	-476.6587524414062	1236.533203125	228.1002655029298	-462.4624328613281	1118.669921875	41.83987426757822	-402.8229675292969	1298.56982421875	19.6850872039796	-465.1120300292969	1328.093017578125	29.58639526367195	-355.9425354003906	
202	0.804	1287.314331054688	1747.8505859375	-392.0732116699215	1228.069091796875	1704.413330078125	-311.2102355957027	1231.35888671875	1692.390991210938	-458.1818542480465	1093.982666015625	1528.022583007812	-373.628509521484	1019.516479492188	1335.155883789062	-299.7054748535153	1018.638305664062	1333.57373046875	-436.5614013671872	1273.757080078125	1363.999389648438	-376.3256835937497	1179.44921875	1480.022094726562	-202.6338348388668	1153.9619140625	1320.215209960938	-110.1470184326169	1215.145751953125	1234.380737304688	-120.9089584350583	1097.1953125	1236.951049804688	-88.0597839355466	1141.926147460938	1129.575927734375	-93.58528137207006	1105.317260742188	1127.60205078125	-167.7777099609372	1241.28125	945.8944702148438	-113.7691268920896	1267.413818359375	878.4876098632812	-162.7384338378904	1212.067260742188	857.431396484375	-105.2690811157225	1282.088500976562	789.9000854492188	-110.851837158203	1171.133544921875	1478.508911132813	-541.6873168945309	1141.664794921875	1308.793823242188	-630.3135986328122	1201.271484375	1226.716796875	-629.9997558593748	1079.429321289062	1232.246337890625	-649.5662841796873	1137.278564453125	1124.510498046875	-653.4328002929685	1086.77978515625	1125.798950195313	-598.618713378906	1231.2041015625	945.5434570312501	-636.037170410156	1257.738037109375	881.5984497070314	-582.8370971679685	1211.397094726562	865.5742187500001	-645.5310058593748	1284.16796875	805.5072021484376	-639.4566650390623	1161.918823242188	1077.496826171875	-195.0381164550779	1039.223388671875	1051.291625976562	-368.0458679199216	1163.773559570312	1076.124877929688	-539.5170288085935	1113.13330078125	926.32958984375	-182.4966888427732	1164.900634765625	647.8690185546875	-194.4671020507811	1220.722778320312	665.5872802734375	-186.9321441650389	1229.729736328125	561.216796875	-210.8498382568358	1163.947265625	566.01123046875	-208.3269958496093	1045.142700195312	417.3327941894532	-201.5921936035155	1068.323608398438	362.7208862304688	-211.2560882568359	1004.996643066406	306.1667785644532	-227.8206176757812	965.4892578125	356.6592407226563	-220.9165954589843	792.0033569335938	244.2229614257813	-302.4759521484374	866.6924438476562	100.8016510009766	-218.1862182617187	916.3632202148438	73.59883880615241	-304.3515014648438	1138.514892578125	964.0395507812501	-545.6590576171873	1267.28076171875	683.3771362304689	-522.2128906249999	1213.260498046875	694.7235717773439	-543.9406127929686	1209.35498046875	592.5405883789064	-508.3344421386718	1271.86962890625	604.8607788085939	-495.2549743652343	1240.508544921875	328.4537658691407	-488.4280700683593	1182.6640625	310.2805480957032	-494.1791076660156	1173.9091796875	225.0115356445314	-476.5309448242187	1236.902954101562	228.1295013427736	-462.6278076171874	1118.780029296875	42.14170837402353	-402.7875366210938	1298.54345703125	19.65203857421885	-465.2504577636719	1328.207641601562	29.54872131347664	-355.9575805664062	
203	0.8080000000000001	1292.968505859375	1748.526733398438	-392.2442932128902	1233.640625	1705.201293945312	-311.2625122070309	1236.768798828125	1693.147338867188	-458.3272094726559	1099.37451171875	1528.998779296875	-373.8970947265622	1024.796997070312	1335.912475585938	-300.2655029296872	1024.741088867188	1334.7685546875	-437.3385620117185	1278.948608398438	1364.931640625	-376.1021423339841	1184.37939453125	1480.934448242188	-202.6628265380856	1157.989868164062	1321.072631835938	-110.2174301147458	1219.259887695312	1235.14111328125	-120.1747741699216	1100.156372070312	1237.730834960938	-88.66702270507785	1145.941162109375	1130.615966796875	-93.37343597412084	1109.855102539062	1128.580810546875	-167.7906646728513	1245.317993164062	946.6991577148438	-112.9328079223631	1271.49951171875	879.3394165039062	-161.7257690429686	1216.013793945312	858.3358154296875	-104.5499725341795	1286.07275390625	790.7573852539062	-109.6205825805662	1176.888549804688	1479.600830078125	-541.8853149414059	1147.729614257812	1309.82763671875	-630.7213134765622	1207.673583984375	1227.958251953125	-630.3905029296873	1085.694091796875	1233.091552734375	-649.8438720703123	1143.6875	1125.901733398438	-653.929992675781	1091.0126953125	1127.523071289063	-599.4676513671873	1238.191528320312	946.9838867187501	-636.218322753906	1264.861206054688	883.0339355468751	-582.711975097656	1218.991333007812	866.7954101562501	-645.5340576171873	1291.746215820312	807.0468750000001	-639.2413940429685	1167.568481445312	1078.76220703125	-195.644332885742	1044.740356445312	1052.301391601562	-368.2886047363279	1169.2041015625	1077.054809570313	-539.6185302734373	1119.194946289062	927.37353515625	-182.3731994628904	1173.294555664062	648.8043823242188	-194.3101654052733	1229.000732421875	666.6439208984375	-187.4014282226561	1238.640747070312	562.7420043945312	-211.3874664306639	1172.651245117188	566.785888671875	-208.9494628906249	1055.115600585938	417.3244018554688	-202.0098571777343	1078.69775390625	362.9104003906251	-211.5467529296874	1015.826477050781	306.0263671875001	-227.4458618164062	976.11328125	356.5636901855469	-220.9665069580077	803.17431640625	241.3211822509766	-302.2368469238281	880.9479370117188	99.73130035400395	-218.0032043457031	931.0964965820312	73.48486328125007	-304.0789794921875	1142.486206054688	964.3402709960939	-546.6734619140623	1270.175170898438	683.2005615234376	-522.5346069335936	1216.225341796875	694.8344116210939	-543.8931274414061	1211.709106445312	592.7688598632814	-508.3355407714843	1273.957763671875	604.6744384765626	-495.6730957031249	1241.109985351562	328.5066528320314	-488.5247497558593	1183.229248046875	310.579071044922	-494.2870788574218	1174.16650390625	225.4265594482423	-476.2875671386718	1237.636352539062	227.7831878662111	-463.2163085937499	1118.881469726562	42.50708007812509	-402.7674255371094	1298.604736328125	19.5946102142335	-465.2443542480469	1328.287475585938	29.50694465637215	-355.9198608398438	
204	0.8120000000000001	1298.445922851562	1749.261474609375	-392.3156738281246	1239.164794921875	1705.897827148438	-311.3101196289059	1242.460083007812	1693.922973632812	-458.5054016113277	1105.130615234375	1530.007690429688	-374.1175537109372	1030.1708984375	1336.5771484375	-301.143859863281	1030.173095703125	1335.767211914062	-438.0906677246091	1284.3173828125	1365.869995117188	-376.0131225585935	1189.304931640625	1481.798706054688	-202.8013305664059	1162.21435546875	1322.099365234375	-110.2139739990231	1223.434448242188	1236.063232421875	-119.5389251708982	1103.894165039062	1238.600219726562	-89.28508758544895	1149.904296875	1131.601806640625	-93.18127441406224	1114.21630859375	1129.668579101562	-167.7442474365232	1249.365112304688	947.5350341796875	-111.9845733642576	1275.801879882812	880.22314453125	-160.6559295654295	1219.962524414062	859.3474731445312	-103.753463745117	1290.061645507812	791.6253662109375	-108.356719970703	1182.630249023438	1480.655517578125	-541.9562377929684	1153.87451171875	1310.84375	-631.1536254882809	1213.953125	1228.838134765625	-630.2069091796873	1091.95361328125	1233.968872070313	-650.5805053710935	1150.341674804688	1126.68798828125	-654.5653076171873	1097.397216796875	1128.241577148438	-600.218811035156	1245.360473632812	948.1788940429689	-636.3942871093748	1271.992065429688	884.5199584960939	-582.6447143554685	1226.32275390625	868.0625610351564	-645.7936401367185	1299.419555664062	808.4348754882814	-638.8822631835935	1172.791748046875	1079.923217773438	-196.4984130859373	1049.52001953125	1053.46044921875	-369.0044860839841	1174.588745117188	1078.032104492188	-540.0032958984373	1125.16845703125	928.4108276367188	-182.3655700683592	1181.709716796875	649.6709594726562	-194.7748260498045	1237.449340820312	668.1773681640625	-187.332794189453	1247.016845703125	563.5723266601562	-211.9643402099608	1181.714965820312	567.7665405273438	-209.0230712890624	1065.130249023438	417.4101867675782	-202.1239776611327	1089.250122070312	363.0043029785157	-211.9120941162109	1026.746459960938	305.6049194335938	-228.1105651855468	986.7532348632812	355.7331237792969	-220.6902618408202	814.4705200195312	238.3351593017579	-302.3013916015624	895.475830078125	98.52839660644536	-217.6643981933593	945.8008422851562	73.23192596435554	-304.0012817382812	1147.316772460938	965.0684204101564	-547.1176147460935	1273.14453125	683.0322265625001	-522.5492553710936	1219.037353515625	694.9730224609376	-544.2074584960936	1213.739135742188	593.1177368164064	-508.7735595703124	1276.045654296875	604.4388427734376	-495.9429931640624	1241.614501953125	328.5926818847657	-488.5666503906249	1183.7578125	310.7854309082032	-494.3135375976562	1174.447631835938	225.7637329101564	-476.2888793945312	1237.940185546875	227.8762512207032	-463.2254943847656	1118.995483398438	42.829444885254	-402.7745971679688	1298.640258789062	19.59617233276377	-465.29296875	1328.401123046875	29.47203254699715	-355.8921813964844	
